Coordinates
version=1
nRows=4
nColumns=63
inDegrees=yes

Units are S.I. units (second, meters, Newtons, ...)
If the header above contains a line with 'inDegrees', this indicates whether rotational values are in degrees (yes) or radians (no).

endheader
time	pelvis_tilt	pelvis_list	pelvis_rotation	pelvis_tx	pelvis_ty	pelvis_tz	hip_flexion_r	hip_adduction_r	hip_rotation_r	knee_angle_r	knee_angle_r_beta	ankle_angle_r	subtalar_angle_r	mtp_angle_r	hip_flexion_l	hip_adduction_l	hip_rotation_l	knee_angle_l	knee_angle_l_beta	ankle_angle_l	subtalar_angle_l	mtp_angle_l	L5_S1_Flex_Ext	L5_S1_Lat_Bending	L5_S1_axial_rotation	L4_L5_Flex_Ext	L4_L5_Lat_Bending	L4_L5_axial_rotation	L3_L4_Flex_Ext	L3_L4_Lat_Bending	L3_L4_axial_rotation	L2_L3_Flex_Ext	L2_L3_Lat_Bending	L2_L3_axial_rotation	L1_L2_Flex_Ext	L1_L2_Lat_Bending	L1_L2_axial_rotation	L1_T12_Flex_Ext	L1_T12_Lat_Bending	L1_T12_axial_rotation	Abs_r3	Abs_r2	Abs_r1	Abs_t1	Abs_t2	neck_flexion	neck_bending	neck_rotation	arm_flex_r	arm_add_r	arm_rot_r	elbow_flex_r	pro_sup_r	wrist_flex_r	wrist_dev_r	arm_flex_l	arm_add_l	arm_rot_l	elbow_flex_l	pro_sup_l	wrist_flex_l	wrist_dev_l
      0.00000000	      3.13256107	     -5.08182768	     99.32597912	      0.27566616	      0.75642582	      0.89505560	     -0.56873470	      3.66076958	      2.15181072	      3.78135595	      0.06599711	     21.69150738	     -4.92036445	      0.00000000	      1.14774096	     -4.29251330	      7.84706912	      5.76629435	      0.10064082	     27.07020785	     -7.74783015	      0.00000000	      0.05347784	      0.55119392	      0.04268468	      0.09931369	      0.73308792	      0.04535247	      0.08785874	      1.34017291	      0.04535247	      0.06111982	      1.34017291	      0.03734909	      0.04965952	      1.12399465	      0.03468130	      0.03055724	      0.85379939	      0.03201351	      0.38198685	      6.23521591	      0.23739936	      0.00000000	      0.00000000	     22.12586283	     -1.89128557	      8.71107518	     12.71145236	     -4.17385511	     52.14173114	     34.60522459	     85.25207983	      6.05143704	     -1.02984861	     17.80251413	     -4.75263644	     81.81864284	     36.06106089	     49.47740479	    -16.25567237	    -12.58546222
      0.01694915	      2.59791607	     -5.41370688	     99.76439339	      0.27437451	      0.75548310	      0.89648858	     -0.22809860	      3.09679203	      1.93079150	      4.14172190	      0.07228668	     22.23932392	     -5.34444487	      0.00000000	      1.59158870	     -3.55526827	      7.80877728	      6.01348493	      0.10495511	     26.63850486	     -7.58521662	      0.00000000	      0.05484999	      0.49005508	     -0.08101629	      0.10186191	      0.65177326	     -0.08607980	      0.09011305	      1.19151992	     -0.08607980	      0.06268805	      1.19151992	     -0.07088925	      0.05093370	      0.99932032	     -0.06582573	      0.03134128	      0.75909532	     -0.06076221	      0.39178798	      5.54360109	     -0.45058828	      0.00000000	      0.00000000	     22.90962460	     -1.82359279	      8.58672857	     13.03559757	     -4.05611329	     52.27738854	     34.70227794	     85.48847893	      6.48337786	     -1.87119641	     17.82532926	     -3.67811426	     81.79188080	     34.36965408	     48.44772018	    -15.56783595	    -11.23280196
      0.03389831	      2.29468246	     -5.76654985	    100.92832256	      0.27303197	      0.75452031	      0.89884871	      0.34647848	      2.75442013	      0.16086833	      4.74097282	      0.08274559	     23.03270812	     -4.81606262	      0.00000000	      2.86113458	     -3.21601424	      5.68237267	      7.43469479	      0.12975990	     27.69195007	     -3.48945146	      0.00000000	      0.06699825	      0.44169463	     -0.26998993	      0.12442246	      0.58745386	     -0.28686430	      0.11007143	      1.07393633	     -0.28686430	      0.07657230	      1.07393633	     -0.23624119	      0.06221458	      0.90070370	     -0.21936682	      0.03828280	      0.68418499	     -0.20249245	      0.47856182	      4.99653804	     -1.50160300	      0.00000000	      0.00000000	     23.40438842	     -1.96096535	      7.89159668	     13.75391012	     -3.84036892	     52.45388117	     33.39118827	     85.66276536	      6.47173741	     -3.98582844	     19.29228655	     -3.27343181	     87.12905699	     33.95262723	     29.14030689	     -9.25539830	    -12.76169952
      0.05084746	      1.90390400	     -6.03606326	    101.20153910	      0.27202051	      0.75375205	      0.90012216	      0.68992352	      2.28502219	     -0.13325819	      5.09333402	      0.08889545	     23.46429867	     -5.02647530	      0.00000000	      3.30454315	     -2.66867783	      5.65454174	      7.71445091	      0.13464257	     27.50766615	     -3.34793923	      0.00000000	      0.06681587	      0.40467850	     -0.29077924	      0.12408376	      0.53822241	     -0.30895294	      0.10977180	      0.98393531	     -0.30895294	      0.07636386	      0.98393531	     -0.25443184	      0.06204522	      0.82522040	     -0.23625813	      0.03817859	      0.62684700	     -0.21808443	      0.47725910	      4.57780413	     -1.61722690	      0.00000000	      0.00000000	     23.92954546	     -1.95674090	      8.13382348	     14.12903582	     -3.92223812	     51.43986618	     32.38261356	     84.91240791	      5.88308880	     -3.76111497	     19.50039879	     -3.03756511	     86.97881360	     33.71273706	     29.07215758	     -8.85728407	    -12.50337273
